<svg width="603" height="228" viewBox="0 0 603 228" fill="none" xmlns="http://www.w3.org/2000/svg">
<path d="M603 0H0V228H603V0Z" fill="white"/>
<path d="M31 125C39.8366 125 47 117.837 47 109C47 100.163 39.8366 93 31 93C22.1634 93 15 100.163 15 109C15 117.837 22.1634 125 31 125Z" fill="url(#paint0_linear_7_6)"/>
<path d="M23.816 113V104.6H29.24V105.836H25.352V108.188H28.496V109.4H25.352V113H23.816ZM30.425 113V104.6H33.797C34.669 104.6 35.333 104.804 35.789 105.212C36.253 105.612 36.485 106.128 36.485 106.76C36.485 107.288 36.341 107.712 36.053 108.032C35.773 108.344 35.429 108.556 35.021 108.668C35.501 108.764 35.897 109.004 36.209 109.388C36.521 109.764 36.677 110.204 36.677 110.708C36.677 111.372 36.437 111.92 35.957 112.352C35.477 112.784 34.797 113 33.917 113H30.425ZM31.961 108.128H33.569C34.001 108.128 34.333 108.028 34.565 107.828C34.797 107.628 34.913 107.344 34.913 106.976C34.913 106.624 34.797 106.348 34.565 106.148C34.341 105.94 34.001 105.836 33.545 105.836H31.961V108.128ZM31.961 111.752H33.677C34.133 111.752 34.485 111.648 34.733 111.44C34.989 111.224 35.117 110.924 35.117 110.54C35.117 110.148 34.985 109.84 34.721 109.616C34.457 109.392 34.101 109.28 33.653 109.28H31.961V111.752Z" fill="white"/>
<defs>
<linearGradient id="paint0_linear_7_6" x1="15" y1="92.852" x2="34.497" y2="131.207" gradientUnits="userSpaceOnUse">
<stop stop-color="#09C6F9"/>
<stop offset="1" stop-color="#045DE9"/>
</linearGradient>
</defs>
</svg>
