<svg width="48" height="61" viewBox="0 0 48 61" fill="none" xmlns="http://www.w3.org/2000/svg">
<path fill-rule="evenodd" clip-rule="evenodd" d="M32.92 44.485L31.522 44.793V46.652C31.522 49.839 29.518 52.55 26.722 53.555V58.56C26.722 59.908 25.6471 61 24.3221 61C22.9961 61 21.9211 59.908 21.9211 58.56V53.555C19.1251 52.55 17.121 49.839 17.121 46.652V44.929C16.913 44.887 16.704 44.843 16.496 44.797L15.08 44.485C8.17005 42.963 2.70201 37.597 0.962006 30.63C-0.320994 25.496 -0.320994 20.118 0.962006 14.984C2.70201 8.01799 8.17005 2.65101 15.08 1.12901L16.496 0.816994C21.441 -0.272006 26.5591 -0.272006 31.5041 0.816994L32.92 1.12901C39.83 2.65101 45.2981 8.01796 47.0381 14.985C48.3211 20.118 48.3211 25.496 47.0381 30.63C45.2981 37.597 39.83 42.963 32.92 44.485ZM26.722 45.508C26.443 45.53 26.165 45.548 25.886 45.563C24.565 45.635 23.2421 45.631 21.9211 45.552V46.652C21.9211 47.999 22.9961 49.092 24.3221 49.092C25.6471 49.092 26.722 47.999 26.722 46.652V45.508ZM26.8011 13.116C27.6291 13.789 27.764 15.018 27.101 15.859L23.196 20.821H28.802C29.54 20.821 30.2131 21.251 30.5331 21.928C30.8521 22.604 30.7621 23.407 30.3011 23.993L23.901 32.126C23.238 32.968 22.0301 33.104 21.2021 32.431C20.3741 31.757 20.24 30.529 20.902 29.687L24.807 24.725H19.201C18.463 24.725 17.79 24.295 17.471 23.619C17.151 22.943 17.2411 22.14 17.7021 21.554L24.102 13.421C24.765 12.579 25.9731 12.442 26.8011 13.116Z" fill="url(#paint0_linear_3_336)"/>
<defs>
<linearGradient id="paint0_linear_3_336" x1="5.33975e-06" y1="-0.282005" x2="41.936" y2="64.635" gradientUnits="userSpaceOnUse">
<stop stop-color="#09C6F9"/>
<stop offset="1" stop-color="#045DE9"/>
</linearGradient>
</defs>
</svg>
