<svg width="48" height="48" viewBox="0 0 48 48" fill="none" xmlns="http://www.w3.org/2000/svg">
<path d="M22.085 0V14.406H1.37793C3.56493 7.66801 9.11592 2.50303 16.0789 0.866028C18.0589 0.400028 20.068 0.112 22.085 0Z" fill="url(#paint0_linear_3_445)"/>
<path d="M25.915 0V29.756H47.5211C48.2821 25.215 48.1361 20.56 47.0831 16.062C45.3191 8.52201 39.4441 2.63403 31.9211 0.866028C29.9421 0.400028 27.932 0.112 25.915 0Z" fill="url(#paint1_linear_3_445)"/>
<path d="M46.6221 33.594H25.915V48C27.932 47.888 29.9421 47.6 31.9211 47.134C38.8841 45.497 44.4351 40.332 46.6221 33.594Z" fill="url(#paint2_linear_3_445)"/>
<path d="M22.085 48V18.244H0.479003C-0.281997 22.785 -0.136009 27.44 0.916991 31.938C2.68099 39.478 8.55598 45.366 16.079 47.134C18.059 47.6 20.068 47.888 22.085 48Z" fill="url(#paint3_linear_3_445)"/>
<defs>
<linearGradient id="paint0_linear_3_445" x1="-7.2164e-05" y1="-0.222" x2="29.2449" y2="57.311" gradientUnits="userSpaceOnUse">
<stop stop-color="#09C6F9"/>
<stop offset="1" stop-color="#045DE9"/>
</linearGradient>
<linearGradient id="paint1_linear_3_445" x1="1.25976e-05" y1="-0.221999" x2="29.245" y2="57.311" gradientUnits="userSpaceOnUse">
<stop stop-color="#09C6F9"/>
<stop offset="1" stop-color="#045DE9"/>
</linearGradient>
<linearGradient id="paint2_linear_3_445" x1="-1.09032e-06" y1="-0.222021" x2="29.245" y2="57.311" gradientUnits="userSpaceOnUse">
<stop stop-color="#09C6F9"/>
<stop offset="1" stop-color="#045DE9"/>
</linearGradient>
<linearGradient id="paint3_linear_3_445" x1="-2.63213e-06" y1="-0.221969" x2="29.245" y2="57.311" gradientUnits="userSpaceOnUse">
<stop stop-color="#09C6F9"/>
<stop offset="1" stop-color="#045DE9"/>
</linearGradient>
</defs>
</svg>
